REM DIRINDEX 1\3,1\5,1\6,1\2\7,1\2\8,1\4\9,1\4\10
REM DIRNAME folder01,folder02,folder03,folder04,folder05,folder06,folder07,folder08,folder09,folder10
TITLE ""
FILE "CD2Track16.mp3" MP3
  TRACK 01 AUDIO
    TITLE "9:cjc060_1346"
    INDEX 01 00:00:00
  TRACK 02 AUDIO
    TITLE "10:cjc060_1347"
    INDEX 01 00:01:19
  TRACK 03 AUDIO
    TITLE "9:cjc060_1348"
    INDEX 01 00:04:15
  TRACK 04 AUDIO
    TITLE "10:cjc060_1349"
    INDEX 01 00:05:52
  TRACK 05 AUDIO
    TITLE "9:cjc060_1350"
    INDEX 01 00:09:32
  TRACK 06 AUDIO
    TITLE "10:cjc060_1351"
    INDEX 01 00:10:57
  TRACK 07 AUDIO
    TITLE "9:cjc060_1352"
    INDEX 01 00:13:73
  TRACK 08 AUDIO
    TITLE "10:cjc060_1353"
    INDEX 01 00:15:27
  TRACK 09 AUDIO
    TITLE "9:cjc060_1354"
    INDEX 01 00:19:32
  TRACK 10 AUDIO
    TITLE "10:cjc060_1355"
    INDEX 01 00:20:43
  TRACK 11 AUDIO
    TITLE "9:cjc060_1356"
    INDEX 01 00:24:10
  TRACK 12 AUDIO
    TITLE "10:cjc060_1357"
    INDEX 01 00:25:27
  TRACK 13 AUDIO
    TITLE "9:cjc060_1358"
    INDEX 01 00:28:55
  TRACK 14 AUDIO
    TITLE "10:cjc060_1359"
    INDEX 01 00:30:01
  TRACK 15 AUDIO
    TITLE "9:cjc060_1360"
    INDEX 01 00:34:34
  TRACK 16 AUDIO
    TITLE "10:cjc060_1361"
    INDEX 01 00:35:64
  TRACK 17 AUDIO
    TITLE "9:cjc060_1362"
    INDEX 01 00:39:37
  TRACK 18 AUDIO
    TITLE "10:cjc060_1363"
    INDEX 01 00:40:48
  TRACK 19 AUDIO
    TITLE "9:cjc060_1364"
    INDEX 01 00:45:02
  TRACK 20 AUDIO
    TITLE "10:cjc060_1365"
    INDEX 01 00:46:31
  TRACK 21 AUDIO
    TITLE "9:cjc060_1366"
    INDEX 01 00:50:01
  TRACK 22 AUDIO
    TITLE "10:cjc060_1367"
    INDEX 01 00:51:20
  TRACK 23 AUDIO
    TITLE "9:cjc060_1368"
    INDEX 01 00:55:03
  TRACK 24 AUDIO
    TITLE "10:cjc060_1369"
    INDEX 01 00:56:35
  TRACK 25 AUDIO
    TITLE "9:cjc060_1370"
    INDEX 01 01:00:47
  TRACK 26 AUDIO
    TITLE "10:cjc060_1371"
    INDEX 01 01:02:05
  TRACK 27 AUDIO
    TITLE "9:cjc060_1372"
    INDEX 01 01:06:14
  TRACK 28 AUDIO
    TITLE "10:cjc060_1373"
    INDEX 01 01:07:35
  TRACK 29 AUDIO
    TITLE "9:cjc060_1374"
    INDEX 01 01:12:03
  TRACK 30 AUDIO
    TITLE "10:cjc060_1375"
    INDEX 01 01:14:35
  TRACK 31 AUDIO
    TITLE "9:cjc060_1376"
    INDEX 01 01:19:07
  TRACK 32 AUDIO
    TITLE "10:cjc060_1377"
    INDEX 01 01:20:22
  TRACK 33 AUDIO
    TITLE "9:cjc060_1378"
    INDEX 01 01:24:04
  TRACK 34 AUDIO
    TITLE "10:cjc060_1379"
    INDEX 01 01:25:33
  TRACK 35 AUDIO
    TITLE "9:cjc060_1380"
    INDEX 01 01:29:07
  TRACK 36 AUDIO
    TITLE "10:cjc060_1381"
    INDEX 01 01:30:40
  TRACK 37 AUDIO
    TITLE "9:cjc060_1382"
    INDEX 01 01:34:40
  TRACK 38 AUDIO
    TITLE "10:cjc060_1383"
    INDEX 01 01:35:65
  TRACK 39 AUDIO
    TITLE "9:cjc060_1384"
    INDEX 01 01:39:59
  TRACK 40 AUDIO
    TITLE "10:cjc060_1385"
    INDEX 01 01:41:18
  TRACK 41 AUDIO
    TITLE "9:cjc060_1386"
    INDEX 01 01:43:66
  TRACK 42 AUDIO
    TITLE "10:cjc060_1387"
    INDEX 01 01:45:04
  TRACK 43 AUDIO
    TITLE "9:cjc060_1388"
    INDEX 01 01:48:32
  TRACK 44 AUDIO
    TITLE "10:cjc060_1389"
    INDEX 01 01:49:49
  TRACK 45 AUDIO
    TITLE "9:cjc060_1390"
    INDEX 01 01:53:39
  TRACK 46 AUDIO
    TITLE "10:cjc060_1391"
    INDEX 01 01:54:54
  TRACK 47 AUDIO
    TITLE "9:cjc060_1392"
    INDEX 01 01:59:16
  TRACK 48 AUDIO
    TITLE "10:cjc060_1393"
    INDEX 01 02:00:41
  TRACK 49 AUDIO
    TITLE "9:cjc060_1394"
    INDEX 01 02:04:15
  TRACK 50 AUDIO
    TITLE "10:cjc060_1395"
    INDEX 01 02:05:27
  TRACK 51 AUDIO
    TITLE "9:cjc060_1396"
    INDEX 01 02:08:52
  TRACK 52 AUDIO
    TITLE "10:cjc060_1397"
    INDEX 01 02:10:10
  TRACK 53 AUDIO
    TITLE "9:cjc060_1398"
    INDEX 01 02:13:14
  TRACK 54 AUDIO
    TITLE "10:cjc060_1399"
    INDEX 01 02:14:35
  TRACK 55 AUDIO
    TITLE "9:cjc060_1400"
    INDEX 01 02:17:63
  TRACK 56 AUDIO
    TITLE "10:cjc060_1401"
    INDEX 01 02:19:17
  TRACK 57 AUDIO
    TITLE "9:cjc060_1402"
    INDEX 01 02:22:60
  TRACK 58 AUDIO
    TITLE "10:cjc060_1403"
    INDEX 01 02:24:00
  TRACK 59 AUDIO
    TITLE "9:cjc060_1404"
    INDEX 01 02:27:50
  TRACK 60 AUDIO
    TITLE "10:cjc060_1405"
    INDEX 01 02:29:00
  TRACK 61 AUDIO
    TITLE "9:cjc060_1406"
    INDEX 01 02:32:43
  TRACK 62 AUDIO
    TITLE "10:cjc060_1407"
    INDEX 01 02:33:62
  TRACK 63 AUDIO
    TITLE "9:cjc060_1408"
    INDEX 01 02:36:45
  TRACK 64 AUDIO
    TITLE "10:cjc060_1409"
    INDEX 01 02:38:08
  TRACK 65 AUDIO
    TITLE "9:cjc060_1410"
    INDEX 01 02:41:68
  TRACK 66 AUDIO
    TITLE "10:cjc060_1411"
    INDEX 01 02:43:10
  TRACK 67 AUDIO
    TITLE "9:cjc060_1412"
    INDEX 01 02:47:07
  TRACK 68 AUDIO
    TITLE "10:cjc060_1413"
    INDEX 01 02:48:32
  TRACK 69 AUDIO
    TITLE "9:cjc060_1414"
    INDEX 01 02:52:69
  TRACK 70 AUDIO
    TITLE "10:cjc060_1415"
    INDEX 01 02:54:07
  TRACK 71 AUDIO
    TITLE "9:cjc060_1416"
    INDEX 01 02:57:53
  TRACK 72 AUDIO
    TITLE "10:cjc060_1417"
    INDEX 01 02:58:68
  TRACK 73 AUDIO
    TITLE "9:cjc060_1418"
    INDEX 01 03:03:65
  TRACK 74 AUDIO
    TITLE "10:cjc060_1419"
    INDEX 01 03:05:07
  TRACK 75 AUDIO
    TITLE "9:cjc060_1420"
    INDEX 01 03:08:62
  TRACK 76 AUDIO
    TITLE "10:cjc060_1421"
    INDEX 01 03:10:24
  TRACK 77 AUDIO
    TITLE "9:cjc060_1422"
    INDEX 01 03:13:54
  TRACK 78 AUDIO
    TITLE "10:cjc060_1423"
    INDEX 01 03:15:10
  TRACK 79 AUDIO
    TITLE "9:cjc060_1424"
    INDEX 01 03:18:49
  TRACK 80 AUDIO
    TITLE "10:cjc060_1425"
    INDEX 01 03:19:72
  TRACK 81 AUDIO
    TITLE "9:cjc060_1426"
    INDEX 01 03:23:23
  TRACK 82 AUDIO
    TITLE "10:cjc060_1427"
    INDEX 01 03:24:42
  TRACK 83 AUDIO
    TITLE "0:"
    INDEX 01 03:28:40
